<?xml version="1.0" encoding="utf-8"?>
<!-- Generator: Adobe Illustrator 16.0.0, SVG Export Plug-In . SVG Version: 6.00 Build 0)  -->
<!DOCTYPE svg PUBLIC "-//W3C//DTD SVG 1.1//EN" "http://www.w3.org/Graphics/SVG/1.1/DTD/svg11.dtd">
<svg version="1.1" id="Layer_1" xmlns="http://www.w3.org/2000/svg" xmlns:xlink="http://www.w3.org/1999/xlink" x="0px" y="0px"
	 width="172px" height="148px" viewBox="0 0 172 148" enable-background="new 0 0 172 148" xml:space="preserve">
<g>
	<path fill-rule="evenodd" clip-rule="evenodd" fill="#7CBA00" d="M164.834,39.573c2.208,3.292,3.93,6.76,4.858,10.68
		c0.812,3.426,1.291,6.878,1.417,10.352c0.11,3.045,0.019,6.212-1.288,9.027c-2.694,5.807-5.518,11.536-9.745,16.482
		c-5.576,6.524-11.997,11.991-19.171,16.671c-6.878,4.485-14.026,8.433-21.43,11.977c-4.075,1.951-8.191,3.821-12.224,5.838
		c-3.924,1.959-7.907,3.814-11.887,5.617c-5.824,2.639-11.484,5.586-17.214,8.398c-2.955,1.448-4.912,3.997-6.743,6.678
		c-1.123,1.647-2.582,3.064-3.899,4.578c-0.384,0.439-0.837,0.553-1.377,0.238c-0.626-0.364-0.975-0.792-1.073-1.599
		c-0.325-2.664-0.769-5.313-1.668-7.864c-0.367-1.04-0.496-2.377-0.922-3.163c-0.488-2.439-1.308-4.326-2.642-6.196
		c-3.755-5.269-7.988-10.132-12.478-14.78c-7.645-7.912-15.767-15.349-23.257-23.419c-4.07-4.385-7.882-8.975-11.191-13.949
		c-3.269-4.914-6.13-10.073-7.73-15.797c-0.649-2.319-1.51-4.768-1.678-7.17c-0.34-1.862-0.477-3.383-0.601-5.095
		c-0.149-2.062-0.033-3.528-0.1-5.592c-0.078-2.393,0.163-3.071,0.39-5.443c0.117-1.212,1.203-4.782,1.719-5.87
		c0.708-1.496,1.074-2.568,1.744-4.091c2.867-6.522,7.711-12.06,13.212-16.539c3.7-3.012,7.835-5.072,12.275-6.66
		c3.991-1.428,8.136-1.563,12.305-1.689c5.513-0.166,10.645,1.271,15.742,3.203c9.667,3.663,17.279,9.981,23.733,17.863
		c4.032,4.922,7.121,10.411,9.591,16.258c0.459,1.086,0.985,1.376,1.987,0.467c3.308-2.998,6.746-5.796,10.648-8.054
		c4.152-2.401,8.43-4.483,13.038-5.734c3.537-0.962,7.156-1.753,10.883-1.605c0.372,0.564-0.06,0.972-0.296,1.4
		c-0.802,1.455-1.25,2.968-1.169,4.666c0.106,2.224,1.308,4.057,3.411,4.818c0.965,0.349,1.938,0.701,2.942,0.922
		c0.903,0.198,1.447,0.678,1.594,1.602c0.733,4.608,5.961,7.772,11.208,5.605c1.042-0.431,1.767-0.337,2.496,0.486
		c2.02,2.279,4.537,3.021,7.535,2.545c2.53-0.401,4.092-1.985,5.4-3.97C163.673,40.916,164.011,40.056,164.834,39.573z"/>
	<path fill-rule="evenodd" clip-rule="evenodd" fill="#144700" d="M164.834,39.573c-1.255,2.38-2.652,4.626-5.136,5.958
		c-2.076,1.114-6.738,0.929-8.303-0.926c-1.642-1.944-3.136-1.809-5.276-1.218c-4.589,1.265-8.996-1.668-9.884-6.339
		c-0.348-1.834-2.075-1.594-3.1-1.796c-5.496-1.084-5.952-6.86-3.62-10.537c0.222-0.35,0.365-0.75,0.544-1.127
		c0.255-0.015,0.526-0.012,0.762-0.026c0.509-0.033,0.509-0.033,1.246,0.034c0.581,0.052-0.37,1.039-0.846,1.447
		c-1.813,1.557-2.215,3.353-1.872,5.352c0.29,1.679,1.378,3.048,3.234,3.449c1.397,0.301,2.638,1.245,4.191,0.946
		c0.432-0.083,0.204,0.407,0.224,0.622c0.401,4.313,3.516,7.27,7.592,7.193c1.548-0.028,2.942-0.602,4.193-1.415
		c0.597-0.389,0.729-0.372,1.068,0.208c1.376,2.35,3.575,3.538,6.18,3.743c3.232,0.256,6.483-2.451,7.248-5.746
		c0.106-0.455,0.223-0.906,0.351-1.427C164.082,38.57,164.458,39.072,164.834,39.573z"/>
</g>
</svg>
